# xmcd
#
# Track frame offsets:
#	150
#	10462
#	26498
#	39345
#	48542
#	68550
#	80519
#	98158
#	111924
#	124855
#	140976
#	154379
#	174376
#
# Disc length: 2617 seconds
#
# Revision: 0
# Processed by: cddbd v1.4PL0 Copyright (c) Steve Scherf et al.
# Submitted via: dBpowerAMP V4.0
#
DISCID=b00a370d
DTITLE=Shane Worley - Shotgun House
DYEAR=1900
DGENRE=Country
TTITLE0=Waltzing Margarita
TTITLE1=Bourbon And Tears
TTITLE2=The Bottle Still Loves Me
TTITLE3=Shotgun House
TTITLE4=Leave A Message
TTITLE5=I'll Forget You
TTITLE6=Jones Clones
TTITLE7=The Same Old Song
TTITLE8=This Side Of Heaven
TTITLE9=The Night That Ruby Fell
TTITLE10=If I Ever Wanted To Cheat
TTITLE11=Things That I Do Well
TTITLE12=DATA
EXTD=
EXTT0=
EXTT1=
EXTT2=
EXTT3=
EXTT4=
EXTT5=
EXTT6=
EXTT7=
EXTT8=
EXTT9=
EXTT10=
EXTT11=
EXTT12=
PLAYORDER=
